<svg width="119" height="111" viewBox="0 0 119 111" fill="none" xmlns="http://www.w3.org/2000/svg">
<path d="M79.6602 42.42C71.2902 42.42 62.7702 42.08 54.8002 39.86C46.9802 37.69 39.8002 33.48 33.4002 28.61C29.2102 25.44 25.4002 22.92 19.9602 23.3C14.6337 23.5916 9.54259 25.5901 5.44019 29C-1.47981 35 -0.439808 46.23 2.33019 54.12C6.49019 66 19.1502 74.23 29.9102 79.61C42.3402 85.82 56.0002 89.42 69.6902 91.5C81.6902 93.32 97.1102 94.65 107.51 86.81C117.06 79.61 119.68 63.17 117.34 52.07C116.773 48.7879 115.027 45.8257 112.43 43.74C105.72 38.84 95.7102 42.11 88.1702 42.28C85.3702 42.34 82.5202 42.41 79.6602 42.42Z" fill="#F3F7FF"/>
<path d="M59.1797 110.95C79.4541 110.95 95.8897 109.925 95.8897 108.66C95.8897 107.395 79.4541 106.37 59.1797 106.37C38.9054 106.37 22.4697 107.395 22.4697 108.66C22.4697 109.925 38.9054 110.95 59.1797 110.95Z" fill="#F3F7FF"/>
<path d="M96.6904 30.2V34.5099" stroke="#75A4FE" stroke-linecap="round" stroke-linejoin="round"/>
<path d="M94.54 32.36H98.84" stroke="#75A4FE" stroke-linecap="round" stroke-linejoin="round"/>
<path d="M18.4404 12.28V16.58" stroke="#75A4FE" stroke-linecap="round" stroke-linejoin="round"/>
<path d="M16.2803 14.4301H20.5903" stroke="#75A4FE" stroke-linecap="round" stroke-linejoin="round"/>
<path d="M65.3003 2.29996C65.8416 2.29996 66.2803 1.8612 66.2803 1.31997C66.2803 0.778726 65.8416 0.339966 65.3003 0.339966C64.7591 0.339966 64.3203 0.778726 64.3203 1.31997C64.3203 1.8612 64.7591 2.29996 65.3003 2.29996Z" fill="#75A4FE"/>
<path d="M62.9605 97.8999C63.5017 97.8999 63.9405 97.4612 63.9405 96.9199C63.9405 96.3787 63.5017 95.9399 62.9605 95.9399C62.4192 95.9399 61.9805 96.3787 61.9805 96.9199C61.9805 97.4612 62.4192 97.8999 62.9605 97.8999Z" fill="#75A4FE"/>
<path d="M84.0057 6.97655L26.9726 12.9005C25.6706 13.0358 24.7249 14.2008 24.8601 15.5027L32.6602 90.5987C32.7955 91.9006 33.9605 92.8464 35.2624 92.7112L92.2956 86.7872C93.5975 86.6519 94.5433 85.4869 94.408 84.185L86.6079 9.08901C86.4727 7.7871 85.3076 6.84132 84.0057 6.97655Z" fill="#75A4FE"/>
<path d="M81.5511 10.4429L30.078 15.7893C28.7761 15.9246 27.8303 17.0896 27.9656 18.3915L35.0198 86.3061C35.155 87.608 36.3201 88.5538 37.622 88.4186L89.095 83.0721C90.397 82.9369 91.3427 81.7719 91.2075 80.47L84.1533 12.5553C84.018 11.2534 82.853 10.3076 81.5511 10.4429Z" fill="white" stroke="#1F64E7" stroke-linecap="round" stroke-linejoin="round"/>
<path d="M72.67 13.77L71.87 6.07C71.8299 5.75041 71.6661 5.45929 71.4136 5.25922C71.1612 5.05914 70.8404 4.96607 70.52 5L61 6C60.9226 5.23177 60.6945 4.48632 60.329 3.80622C59.9634 3.12611 59.4674 2.52467 58.8694 2.03624C58.2714 1.5478 57.5831 1.18193 56.8437 0.959527C56.1043 0.737119 55.3283 0.662524 54.56 0.740004C53.7918 0.817484 53.0464 1.04552 52.3663 1.41109C51.6862 1.77666 51.0847 2.27261 50.5963 2.87062C49.6098 4.07836 49.1436 5.62849 49.3 7.18L39.75 8.18C39.5891 8.19625 39.433 8.24407 39.2905 8.32075C39.1481 8.39742 39.0222 8.50143 38.92 8.62683C38.8178 8.75223 38.7414 8.89655 38.6951 9.05153C38.6488 9.20651 38.6334 9.3691 38.65 9.53001L39.45 17.23C39.4663 17.3909 39.5141 17.5471 39.5908 17.6895C39.6675 17.832 39.7715 17.9579 39.8969 18.06C40.0223 18.1622 40.1666 18.2387 40.3216 18.285C40.4766 18.3313 40.6391 18.3466 40.8 18.33L71.58 15.13C71.7416 15.1139 71.8982 15.0657 72.0409 14.9882C72.1835 14.9108 72.3093 14.8057 72.4108 14.679C72.5123 14.5524 72.5875 14.4067 72.632 14.2506C72.6766 14.0946 72.6895 13.9312 72.67 13.77Z" fill="white" stroke="#1F64E7" stroke-linecap="round" stroke-linejoin="round"/>
<path d="M47.9199 60.71C48.2474 57.7426 49.581 54.9767 51.6988 52.8725C53.8166 50.7682 56.5909 49.4524 59.5604 49.1438C62.5299 48.8353 65.5155 49.5527 68.0206 51.1767C70.5257 52.8007 72.3994 55.2333 73.3299 58.07" stroke="#1F64E7" stroke-linecap="round" stroke-linejoin="round"/>
<path d="M49.3798 37.8101L44.5898 43.7101" stroke="#1F64E7" stroke-linecap="round" stroke-linejoin="round"/>
<path d="M44.04 38.37L49.93 43.15" stroke="#1F64E7" stroke-linecap="round" stroke-linejoin="round"/>
<path d="M72.54 35.41L67.75 41.3" stroke="#1F64E7" stroke-linecap="round" stroke-linejoin="round"/>
<path d="M67.2002 35.96L73.0902 40.75" stroke="#1F64E7" stroke-linecap="round" stroke-linejoin="round"/>
</svg>
